HIERARCHY
ROOT Hips
{
	OFFSET 0.000000 0.000000 0.000000 
	CHANNELS 6 Xposition Yposition Zposition Zrotation Yrotation Xrotation
	JOINT LeftUpLeg
	{
		OFFSET 1.363060 -1.794630 0.839290 
		CHANNELS 3 Zrotation Yrotation Xrotation
		JOINT LeftLeg
		{
			OFFSET 2.448110 -6.726130 0.000000 
			CHANNELS 3 Zrotation Yrotation Xrotation
			JOINT LeftFoot
			{
				OFFSET 2.562200 -7.039590 0.000000 
				CHANNELS 3 Zrotation Yrotation Xrotation
				JOINT LeftToeBase
				{
					OFFSET 0.157640 -0.433110 2.322550 
					CHANNELS 3 Zrotation Yrotation Xrotation
					End Site
					{
						OFFSET 0.000000 0.000000 0.000000 
					}
				}
			}
		}
	}
	JOINT RightUpLeg
	{
		OFFSET -1.305520 -1.794630 0.839290 
		CHANNELS 3 Zrotation Yrotation Xrotation
		JOINT RightLeg
		{
			OFFSET -2.542530 -6.985550 0.000000 
			CHANNELS 3 Zrotation Yrotation Xrotation
			JOINT RightFoot
			{
				OFFSET -2.568260 -7.056230 0.000000 
				CHANNELS 3 Zrotation Yrotation Xrotation
				JOINT RightToeBase
				{
					OFFSET -0.164730 -0.452590 2.363150 
					CHANNELS 3 Zrotation Yrotation Xrotation
					End Site
					{
						OFFSET 0.000000 0.000000 0.000000 
					}
				}
			}
		}
	}
	JOINT Spine
	{
		OFFSET 0.028270 2.035590 -0.193380 
		CHANNELS 3 Zrotation Yrotation Xrotation
		JOINT Spine1
		{
			OFFSET 0.056720 2.048850 -0.042750 
			CHANNELS 3 Zrotation Yrotation Xrotation
			JOINT Neck1
			{
				OFFSET -0.054170 1.746240 0.172020 
				CHANNELS 3 Zrotation Yrotation Xrotation
				JOINT Head
				{
					OFFSET 0.104070 1.761360 -0.123970 
					CHANNELS 3 Zrotation Yrotation Xrotation
					End Site
					{
						OFFSET 0.000000 0.000000 0.000000 
					}
				}
			}
			JOINT LeftArm
			{
				OFFSET 3.362410 1.200890 -0.311210 
				CHANNELS 3 Zrotation Yrotation Xrotation
				JOINT LeftForeArm
				{
					OFFSET 4.983000 -0.000000 -0.000000 
					CHANNELS 3 Zrotation Yrotation Xrotation
					JOINT LeftHand
					{
						OFFSET 3.483560 -0.000000 -0.000000 
						CHANNELS 3 Zrotation Yrotation Xrotation
						JOINT LeftHandIndex1
						{
							OFFSET 0.715260 -0.000000 -0.000000 
							CHANNELS 3 Zrotation Yrotation Xrotation
							End Site
							{
								OFFSET 0.000000 0.000000 0.000000 
							}
						}
					}
				}
			}
			JOINT RightArm
			{
				OFFSET -3.136600 1.374050 -0.404650 
				CHANNELS 3 Zrotation Yrotation Xrotation
				JOINT RightForeArm
				{
					OFFSET -5.241900 -0.000000 -0.000000 
					CHANNELS 3 Zrotation Yrotation Xrotation
					JOINT RightHand
					{
						OFFSET -3.444170 -0.000000 -0.000000 
						CHANNELS 3 Zrotation Yrotation Xrotation
						JOINT RightHandIndex1
						{
							OFFSET -0.622530 -0.000000 -0.000000 
							CHANNELS 3 Zrotation Yrotation Xrotation
							End Site
							{
								OFFSET 0.000000 0.000000 0.000000 
							}
						}
					}
				}
			}
		}
	}
}
MOTION
Frames: 17
Frame Time: 0.041667
2.407560 17.684202 -31.280647 4.706390 2.705821 1.285533 -24.889036 -3.069532 10.115220 1.176568 7.763684 26.458714 1.509705 -5.582432 14.350119 1.301400 -7.227300 -20.390500 15.633673 11.723978 -25.502469 -0.209950 -6.673058 18.193197 0.067064 -7.000738 17.740974 -0.122900 -2.260200 6.225400 0.824415 -2.751308 -1.845428 5.686838 -1.227253 -3.181887 4.355880 -2.196329 13.313767 3.308700 -1.478900 9.077600 -79.659278 -6.190484 21.090717 13.633870 -24.697691 -3.876795 -1.145285 -3.762271 7.759514 -7.125000 0.000000 0.000000 82.721526 -10.280450 -8.186255 -8.983647 14.054118 -1.402510 1.221891 -0.713754 23.814607 7.125000 0.000000 0.000000 
2.387677 17.691581 -31.064806 4.436497 2.530267 0.902093 -24.303762 -3.291819 9.082539 1.643567 8.577779 28.989310 1.556263 -5.234349 17.287291 1.239400 -7.059500 -19.891700 16.623147 11.403048 -25.387583 -0.394241 -7.060163 19.557859 -0.023594 -6.258534 17.499452 -0.165700 -2.622200 7.228600 2.405898 -6.888306 -3.073041 11.638501 -2.671549 -6.457990 3.938536 2.688650 12.666625 4.112100 0.437000 6.501700 -84.184702 1.738779 11.773967 14.258056 -25.997444 -4.383513 -1.152787 -3.503310 8.395517 -7.125000 0.000000 0.000000 74.994252 -14.968415 3.060980 -8.462894 13.713743 -1.297626 1.366041 -0.623132 22.926664 7.125000 0.000000 0.000000 
2.367692 17.696808 -30.848452 4.044607 2.027388 0.642949 -23.782940 -3.122185 8.086584 2.095075 9.288101 31.227998 1.661698 -4.815438 20.495685 1.154200 -6.821100 -19.186600 17.534881 11.406643 -25.041825 -0.530571 -7.369104 20.665182 -0.212267 -5.078592 17.283297 -0.258500 -3.271000 9.034200 2.869539 -7.787948 -3.270404 13.254684 -2.967321 -6.812098 3.761993 4.083881 12.640524 4.224400 1.027100 6.206900 -85.743503 3.234783 9.015697 14.410819 -26.284890 -4.536040 -1.122524 -3.323621 8.237572 -7.125000 0.000000 0.000000 72.790617 -15.109593 5.674059 -8.227268 13.418625 -1.232304 1.381874 -0.672393 23.331909 7.125000 0.000000 0.000000 
2.346066 17.712387 -30.629537 3.715433 1.924686 0.300087 -23.252936 -3.213589 7.200319 2.541612 9.956343 33.414774 1.899344 -5.083316 23.502087 1.154000 -6.820600 -19.185000 18.312895 11.276478 -24.447973 -0.658504 -7.613800 21.597730 -0.306480 -4.154971 16.656657 -0.272200 -3.356000 9.271500 3.301763 -8.698516 -3.504298 14.862528 -3.225563 -7.422370 3.611868 5.233344 12.602058 4.327600 1.502700 5.945400 -87.405550 4.842113 7.020511 14.743638 -26.748885 -4.670541 -1.143583 -3.574823 7.608064 -7.125000 0.000000 0.000000 70.718028 -15.341370 8.521873 -8.161379 13.415327 -1.234730 1.333277 -0.736845 22.688753 7.125000 0.000000 0.000000 
2.322904 17.741186 -30.412876 3.288707 2.112770 -0.093053 -22.575445 -3.539467 6.290912 2.978739 10.598135 35.612564 2.224402 -6.194486 26.041395 1.182900 -6.902500 -19.427000 19.193340 10.861659 -23.651758 -0.770744 -7.773235 22.261214 -0.251921 -3.898038 15.755767 -0.211600 -2.961900 8.172700 3.616849 -9.406141 -3.678777 15.950073 -3.417570 -7.970506 3.466055 5.784510 12.580175 4.368700 1.711000 5.744800 -88.632537 6.165287 5.763299 15.019892 -27.124333 -4.779734 -1.147393 -3.807098 6.733229 -7.125000 0.000000 0.000000 69.315627 -15.642025 11.120912 -8.245120 13.626281 -1.278908 1.324695 -0.703200 21.578914 7.125000 0.000000 0.000000 
2.297179 17.771420 -30.205644 2.852829 2.198850 -0.502585 -22.007554 -3.859736 5.326316 3.488178 11.265189 37.861187 2.489177 -6.383147 28.825174 0.956100 -6.226600 -17.443400 20.044368 10.379047 -22.650088 -0.840431 -7.833029 22.608441 -0.162058 -3.869896 14.855029 -0.164500 -2.612900 7.202700 3.483549 -8.943218 -3.575771 15.192485 -3.247199 -8.045847 3.575323 5.279726 12.646647 4.340100 1.497600 5.813100 -88.241030 6.194505 6.489773 14.910168 -26.973644 -4.725441 -1.243895 -3.693778 6.516826 -7.125000 0.000000 0.000000 70.216450 -15.742785 10.223079 -8.366116 13.793597 -1.313721 1.325553 -0.731600 21.759406 7.125000 0.000000 0.000000 
2.274324 17.801039 -30.001589 2.301258 2.094183 -0.704701 -21.456106 -4.062030 4.038496 4.091223 11.973429 40.234018 2.738546 -5.869775 31.630472 0.708200 -5.378600 -14.991500 20.922194 9.993485 -21.658556 -0.834481 -7.774506 22.597793 -0.219448 -3.300238 14.366370 -0.107500 -2.114000 5.820900 2.824026 -6.944753 -3.155474 12.129304 -2.571285 -7.452616 3.821653 3.351711 12.714334 4.128000 0.710500 6.279300 -85.957317 4.487162 10.520603 14.496074 -26.348166 -4.501606 -1.313679 -3.483598 6.341842 -7.125000 0.000000 0.000000 73.851988 -15.218608 5.014936 -8.477442 13.832725 -1.329735 1.251167 -0.952161 23.003577 7.125000 0.000000 0.000000 
2.250240 17.827994 -29.796919 1.468678 1.547552 -0.550742 -20.729089 -3.806491 2.309662 4.758365 12.697504 42.621894 3.390596 -5.285193 36.959445 0.000500 0.146100 0.401500 21.958766 10.051122 -20.774054 -0.785425 -7.684478 22.377680 -0.295070 -2.821613 14.163610 -0.080100 -1.825100 5.022600 1.226774 -2.057266 -1.712325 5.180728 -0.844082 -3.417785 4.208089 -2.009469 13.642180 3.261600 -1.417900 9.308600 -80.968563 -4.248084 19.274541 13.444470 -24.464250 -3.942018 -1.158927 -2.958480 7.883335 -7.125000 0.000000 0.000000 82.142537 -9.414893 -7.885555 -8.890395 13.871060 -1.364183 1.254156 -0.832182 25.458659 7.125000 0.000000 0.000000 
2.225540 17.865607 -29.597374 0.915618 1.318678 -0.764083 -20.054728 -3.860249 0.671651 5.443037 13.380153 45.091018 3.858739 -5.391931 40.004219 0.110100 2.139000 5.890100 22.956138 9.949702 -19.663908 -0.765799 -7.532858 22.100978 -0.201775 -3.025551 13.705270 -0.053500 -1.492900 4.106100 1.311165 -2.012272 -1.783901 5.169992 -0.790782 -3.785874 4.235844 -1.895074 13.561548 3.292600 -1.371300 9.125800 -81.146751 -3.426357 19.319719 13.465502 -24.501520 -3.914321 -1.149417 -3.157288 7.622082 -7.125000 0.000000 0.000000 81.922735 -9.556346 -6.995939 -8.998693 14.042594 -1.403544 1.260330 -0.750862 24.286034 7.125000 0.000000 0.000000 
2.208322 17.893279 -29.401211 0.422678 1.357484 -1.048935 -19.495785 -4.197426 -0.542468 6.171303 14.020145 47.540824 3.986700 -4.830497 40.930965 0.149600 2.492700 6.869500 23.819976 9.688717 -18.452362 -0.749080 -7.377490 21.802469 -0.063967 -3.437616 13.180487 -0.050400 -1.449500 3.986500 1.360813 -2.035889 -1.823898 4.996575 -0.780257 -4.089446 4.229338 -1.927605 13.424131 3.289500 -1.389000 8.934900 -81.289764 -2.615730 19.813010 13.596922 -24.705838 -3.956189 -1.205464 -3.279639 6.452966 -7.125000 0.000000 0.000000 81.768064 -9.634537 -5.951362 -9.083868 14.206275 -1.448111 1.203592 -0.799059 23.180979 7.125000 0.000000 0.000000 
2.188849 17.910087 -29.207098 0.135451 1.178736 -1.547895 -18.814730 -4.515639 -1.602348 6.901457 14.592412 49.931496 3.701175 -3.857907 39.485497 0.097500 2.013300 5.542400 24.785708 9.792218 -17.166934 -0.762162 -7.211613 21.612167 0.068888 -3.777040 12.773608 -0.043200 -1.341900 3.690200 3.309320 -6.749385 -3.198348 12.809288 -2.380445 -8.074938 3.615456 3.693439 12.645880 4.100700 0.830800 6.131300 -87.612157 5.972975 9.222062 14.485192 -26.298080 -4.491962 -1.154346 -3.544739 7.562159 -7.125000 0.000000 0.000000 72.289396 -14.457342 8.804332 -8.737475 14.216273 -1.417834 1.323749 -0.773504 20.290019 7.125000 0.000000 0.000000 
2.171426 17.931917 -29.023950 -0.490178 0.572260 -1.565553 -18.324022 -4.472008 -3.010631 7.508342 15.094414 52.224739 3.117780 -4.029044 35.633876 0.130100 -2.325100 -6.405100 25.691164 10.304598 -16.164716 -0.758747 -7.152695 21.491615 0.178153 -4.136927 12.329596 -0.040400 -1.297900 3.568800 2.473552 -3.997219 -2.527248 8.845927 -1.434782 -6.442114 3.901437 0.847093 12.423342 3.789000 -0.328700 6.887600 -84.756326 2.547116 14.540181 13.922958 -25.317898 -4.048373 -1.124309 -3.867001 8.008995 -7.125000 0.000000 0.000000 76.622045 -12.452722 2.711457 -8.970143 14.324927 -1.455303 1.317678 -0.706223 20.990242 7.125000 0.000000 0.000000 
2.165687 17.947803 -28.851770 -0.607101 -0.642922 -1.472022 -18.505953 -3.776174 -4.702415 8.221000 15.584585 54.294086 3.080266 -2.539457 35.985921 0.000100 0.077200 0.212000 25.990375 10.860968 -15.347525 -0.735266 -7.100738 21.374431 0.140645 -3.859521 12.068054 -0.057000 -1.540300 4.236900 1.493015 -0.753928 -1.619070 4.818845 -0.145622 -3.754966 3.972089 -2.523892 12.710027 3.069800 -1.647000 8.695000 -81.969969 -2.833268 20.702306 13.150745 -23.940928 -3.587014 -1.249695 -3.705767 6.283446 -7.125000 0.000000 0.000000 81.101355 -7.958694 -4.238230 -9.233646 14.329523 -1.480680 1.279817 -0.584171 21.963091 7.125000 0.000000 0.000000 
2.119874 17.978447 -28.635314 -0.761552 0.635607 -1.668735 -18.101039 -5.001334 -5.579330 8.768771 15.977194 56.104749 2.873595 -2.274999 34.755089 0.021700 0.950900 2.613700 26.431075 10.531671 -14.132729 -0.765995 -7.035285 21.260801 0.515001 -5.232034 10.866010 -0.066100 -1.659200 4.564600 1.521789 -1.249122 -1.614099 4.920763 -0.381343 -3.615026 4.057875 -2.684736 12.677244 3.063300 -1.703700 8.628400 -81.875926 -2.630920 20.785864 12.854248 -23.577268 -3.536362 -1.415670 -3.131368 6.395865 -7.125000 0.000000 0.000000 81.244073 -7.762200 -3.194499 -9.547871 14.821589 -1.598901 1.244944 -0.529046 21.200338 7.125000 0.000000 0.000000 
2.089537 17.998432 -28.442123 -1.018114 0.860366 -1.895231 -17.701082 -5.389299 -6.747540 9.290563 16.332959 57.850100 2.473921 -2.008579 32.082277 0.006000 0.502000 1.379300 27.050664 10.574268 -12.947200 -0.784942 -6.975434 21.192395 0.723299 -5.911383 10.051008 -0.061200 -1.595600 4.389300 1.562555 -1.276950 -1.540174 4.938522 -0.400362 -3.405825 4.180801 -2.708559 12.760438 3.122000 -1.704500 8.773800 -81.992052 -2.797680 20.890471 12.619499 -23.166655 -3.322249 -1.169266 -3.674094 5.960410 -7.125000 0.000000 0.000000 81.157405 -7.040345 -1.947358 -9.802268 15.192992 -1.694460 1.225780 -0.542092 20.371669 7.125000 0.000000 0.000000 
2.072319 18.014523 -28.261743 -0.968000 0.175705 -2.040914 -17.725396 -5.005525 -8.149115 9.780664 16.644197 59.434619 2.017436 -1.500110 28.883311 0.008500 -0.593600 -1.631300 27.341128 10.948266 -11.849942 -0.774783 -6.888788 21.047940 0.775561 -5.975823 9.589520 -0.077100 -1.790700 4.927600 1.562979 -1.020723 -1.445003 4.969190 -0.274466 -3.115468 4.240271 -2.602123 12.691213 3.172300 -1.651300 8.728100 -82.224088 -2.750679 20.318221 12.372308 -22.886402 -3.410122 -1.693794 -2.130349 5.691939 -7.125000 0.000000 0.000000 80.966302 -6.456125 -0.341654 -10.075537 15.579795 -1.788545 1.274572 -0.393016 19.347920 7.125000 0.000000 0.000000 
2.060636 18.026309 -28.090382 -0.910471 -0.300003 -2.179715 -17.799838 -4.840511 -9.528146 10.219480 16.922565 60.897253 1.631955 -1.363520 25.621485 0.123000 -2.261000 -6.227500 27.544543 11.069949 -10.874497 -0.762877 -6.803513 20.909923 0.803845 -5.929006 9.088134 -0.095000 -1.987900 5.472300 1.520177 -0.826810 -1.429967 4.832890 -0.167289 -3.158343 4.405009 -2.531034 12.731353 3.259000 -1.607200 8.686200 -82.313059 -2.470274 20.113713 12.471908 -22.949783 -3.235085 -1.384012 -3.558701 6.956393 -7.125000 0.000000 0.000000 80.978441 -6.096036 0.942968 -10.342181 15.938337 -1.878140 1.318197 -0.181003 18.488472 7.125000 0.000000 0.000000 
